<svg xmlns="http://www.w3.org/2000/svg" width="180" height="180" viewBox="0 0 180 180">
  <rect width="180" height="180" rx="32" fill="#2563EB"/>
  <path d="M12.348 18.652a3.75 3.75 0 010-5.304m5.304 0a3.75 3.75 0 010 5.304m-7.425 2.121a6.75 6.75 0 010-9.546m9.546 0a6.75 6.75 0 010 9.546M8.106 22.894c-3.808-3.807-3.808-9.98 0-13.788m13.788 0c3.808 3.807 3.808 9.98 0 13.788M16 16h.008v.008H16V16zm.375 0a.375.375 0 11-.75 0 .375.375 0 01.75 0z" fill="none" stroke="white" stroke-width="1.2" stroke-linecap="round" stroke-linejoin="round" transform="translate(52.5, 52.5) scale(4.6875)"/>
</svg>
